<?xml version="1.0" encoding="utf-8"?>
<!-- Generator: Adobe Illustrator 15.0.0, SVG Export Plug-In . SVG Version: 6.00 Build 0)  -->
<!DOCTYPE svg PUBLIC "-//W3C//DTD SVG 1.1//EN" "http://www.w3.org/Graphics/SVG/1.1/DTD/svg11.dtd">
<svg version="1.1" id="Layer_1" xmlns="http://www.w3.org/2000/svg" xmlns:xlink="http://www.w3.org/1999/xlink" x="0px" y="0px"
	 width="1200px" height="806.537px" viewBox="0 0 1200 806.537" enable-background="new 0 0 1200 806.537" xml:space="preserve">
<rect fill="#BFC6C9" width="1200" height="805.562"/>
<line vector-effect="non-scaling-stroke" fill="none" stroke="#000000" stroke-width="1" stroke-miterlimit="10" x1="1063.343" y1="232.363" x2="1200" y2="232.363"/>
<line fill="none" vector-effect="non-scaling-stroke" stroke="#000000" stroke-width="1" stroke-miterlimit="10" x1="471.479" y1="232.363" x2="683.129" y2="232.363"/>
<line fill="none" vector-effect="non-scaling-stroke" stroke="#000000" stroke-width="1" stroke-miterlimit="10" x1="194.988" y1="232.363" x2="310.494" y2="232.363"/>
<path fill="none" vector-effect="non-scaling-stroke" stroke="#000000" stroke-width="1" stroke-miterlimit="10" d="M0,232.363"/>
<path fill="none" vector-effect="non-scaling-stroke" stroke="#000000" stroke-width="1" stroke-miterlimit="10" d="M0,805.562"/>
<path fill="none" vector-effect="non-scaling-stroke" stroke="#000000" stroke-width="1" stroke-miterlimit="10" d="M1200,805.562"/>
<polyline fill="none" vector-effect="non-scaling-stroke" stroke="#000000" stroke-width="1" stroke-miterlimit="10" points="1202,805.562 1086.6,695.463 
	1200.993,695.463 "/>
<polyline fill="none" vector-effect="non-scaling-stroke" stroke="#000000" stroke-width="1" stroke-miterlimit="10" points="279.9,470.363 351.5,470.363 0,805.562 
	"/>
<line fill="none" vector-effect="non-scaling-stroke" stroke="#000000" stroke-width="1" stroke-miterlimit="10" x1="0" y1="400.363" x2="0" y2="470.363"/>
<polyline fill="none" vector-effect="non-scaling-stroke" stroke="#000000" stroke-width="1" stroke-miterlimit="10" points="811.999,347.363 721.5,347.363 
	601,232.363 424.9,400.363 279.9,400.363 "/>
<polyline fill="none" vector-effect="non-scaling-stroke" stroke="#000000" stroke-width="1" stroke-miterlimit="10" points="1200.993,501.363 883,501.363 
	760.9,384.863 811.999,384.863 "/>
<polyline fill="none" vector-effect="non-scaling-stroke" stroke="#000000" stroke-width="1" stroke-miterlimit="10" points="680,235.363 779.2,140.263 
	841.676,223.375 "/>
<polyline fill="none" vector-effect="non-scaling-stroke" stroke="#000000" stroke-width="1" stroke-miterlimit="10" points="812,332.363 737.8,332.363 
	737.8,242.363 823.837,242.363 "/>
<polyline fill="none" vector-effect="non-scaling-stroke" stroke="#000000" stroke-width="1" stroke-miterlimit="10" points="738,242.363 680,235.363 679.8,283.063 
	737.8,332.363 "/>
<g>
	<path fill="none" vector-effect="non-scaling-stroke" stroke="#000000" stroke-width="1" stroke-miterlimit="10" d="M599,232.363"/>
</g>
<polyline fill="none" vector-effect="non-scaling-stroke" stroke="#000000" stroke-width="1" stroke-miterlimit="10" points="279.9,310.363 60,108.363 0,195.463 "/>
<polygon fill="none" vector-effect="non-scaling-stroke" stroke="#000000" stroke-width="1" stroke-miterlimit="10" points="279.9,496.363 110,636.363 
	109.9,366.363 279.9,310.363 "/>
<polyline fill="none" vector-effect="non-scaling-stroke" stroke="#000000" stroke-width="1" stroke-miterlimit="10" points="0,636.363 110,636.363 110,366.363 
	0,366.463 "/>
<polyline fill="none" vector-effect="non-scaling-stroke" stroke="#000000" stroke-width="1" stroke-miterlimit="10" points="812,254.963 961,96.363 1110,294.363 
	"/>
<path fill="none" vector-effect="non-scaling-stroke" stroke="#000000" stroke-width="1" stroke-miterlimit="10" d="M940,444.363"/>
<rect x="899" vector-effect="non-scaling-stroke" y="294.363" fill="none" stroke="#000000" stroke-width="1" stroke-miterlimit="10" width="211" height="186"/>
<polyline fill="none" vector-effect="non-scaling-stroke" stroke="#000000" stroke-width="1" stroke-miterlimit="10" points="899,294.363 812,254.963 812,406.363 
	899,480.363 "/>
<path fill="none" vector-effect="non-scaling-stroke" stroke="#000000" stroke-width="1" stroke-miterlimit="10" d="M367,204.363"/>
<polyline fill="none" vector-effect="non-scaling-stroke" stroke="#000000" stroke-width="1" stroke-miterlimit="10" points="415,269.461 415,372.363 367,372.363 
	367,269.489 "/>
<g>
	<path fill="none" vector-effect="non-scaling-stroke" stroke="#000000" stroke-width="1" stroke-miterlimit="10" d="M391,272.338c55.781,0,101-45.22,101-101
		c0-55.78-45.219-101-101-101s-101,45.22-101,101c0,55.825,45.2,101.025,101,101.025"/>
</g>
<path fill="none" vector-effect="non-scaling-stroke" stroke="#000000" stroke-width="1" stroke-miterlimit="10" d="M279.9,470.363"/>
<path fill="none" vector-effect="non-scaling-stroke" stroke="#000000" stroke-width="1" stroke-miterlimit="10" d="M279.9,400.363"/>
<path fill="none" vector-effect="non-scaling-stroke" stroke="#000000" stroke-width="1" stroke-miterlimit="10" d="M1110,347.092c0,0,86.226,0,90,0"/>
<path fill="none" vector-effect="non-scaling-stroke" stroke="#000000" stroke-width="1" stroke-miterlimit="10" d="M1110,384.863c0,0,86.226,0,90,0"/>
<line fill="none" vector-effect="non-scaling-stroke" stroke="#000000" stroke-width="1" stroke-miterlimit="10" x1="1400.551" y1="262.363" x2="1400.551" y2="448.363"/>
<path fill="#FFFFFF" vector-effect="non-scaling-stroke" d="M961,89.769l-62,63c0,0-11.5,22.164,8.5,18.582s43-11.582,49-11.582s32,0,41,5s31,30.594,31,30.594
	s18,4.406,7-14.594S961,89.769,961,89.769z"/>
<path fill="#FFFFFF" vector-effect="non-scaling-stroke" d="M778.167,135.435l-21.334,20.333c0,0-5.324,5.333,4.005,9.667c0,0,6.299,4.819,19.98,0
	c0,0,8.016-2.502,15.349,5.916c0,0,4.053,4.793,7.859,1.939c0,0,3.474-4.188-8.526-16.854L778.167,135.435z"/>
<path fill="#FFFFFF" vector-effect="non-scaling-stroke" d="M867.5,272.363c0,0,18,8.595,38,11.5s45,3.5,45,3.5l54-3.5c0,0,20-8.905-6-11.5s-64-5.595-83-10.595
	s-50.333-11.472-54.333-4.667S858.945,268.792,867.5,272.363z"/>
<path fill="#FFFFFF" vector-effect="non-scaling-stroke" d="M391,63.769c0,0-51.512-2.5-80.506,37c0,0-15.494,19-3.494,24.5c0,0,10,13,48-11.5c0,0,28.5-17.312,57-5.406
	s35,16.406,49.5,9.406s10-14.586,3-21.543S421.5,63.269,391,63.769z"/>
<path fill="#FFFFFF" vector-effect="non-scaling-stroke" d="M59.5,89.769l96,91.767c0,0,37,44.423,10,50.828s-49.138-5.595-68.569-7.595s-49.931-10-73.431-9
	s-30-11.405-30-11.405L59.5,89.769z"/>
<path fill="#FFFFFF" vector-effect="non-scaling-stroke" d="M210.959,579.851c0,0,43.324-37.499,91.484-13.5s166.161,52.497,112.41,95.995
	s-157.547,56.997-203.894,80.996S94.116,783.84,103.115,731.343c5.851-34.128,49.908-63.512,72.635-102.24
	C189.833,605.103,210.959,579.851,210.959,579.851z"/>
<path fill="#FFFFFF" vector-effect="non-scaling-stroke" d="M0,347.092c0,0,92.886,4.229,110,0s102.61-30.729,102.61-30.729s11.253-12.499-17.622-13.999
	s-64.874,19.097-99.372,18.548s-95.616,0-95.616,0V347.092z"/>
<path fill="#FFFFFF" vector-effect="non-scaling-stroke" d="M949.073,662.191c35.998,3.154,86.247-22.344,31.874-44.843s-81.023-6.001-81.947,10.499
	S913.075,659.037,949.073,662.191z"/>
<path fill="#FFFFFF" vector-effect="non-scaling-stroke" d="M280.4,366.363c0,0,32.833,0,55.216,16.073c19.023,13.66-37.019,26.666-41.702,27.333s-13.514,0-13.514,0
	V366.363z"/>
<path fill="#FFFFFF" vector-effect="non-scaling-stroke" d="M600,448.363c0,0,25.089-39.504,50.588-26.005s62.997,31.499,41.998,40.498S583.393,467.159,600,448.363z"/>
<path fill="#FFFFFF" vector-effect="non-scaling-stroke" d="M551.473,364.743c0,0,29-12.406,35,0c0,0,2.697,8.279-13,10.549S535.473,375.337,551.473,364.743z"/>
</svg>
